PathFileType	4	(X/Y/Z)	pose_F01_0-94.trc
DataRate	CameraRate	NumFrames	NumMarkers	Units	OrigDataRate	OrigDataStartFrame	OrigNumFrames
30	30	15	21	m	30	0	94
Frame#	Time	CHip			RHip			RKnee			RAnkle			RBigToe			RSmallToe			RHeel			LHip			LKnee			LAnkle			LBigToe			LSmallToe			LHeel			Neck			Nose			RShoulder			RElbow			RWrist			LShoulder			LElbow			LWrist			
		X1	Y1	Z1	X2	Y2	Z2	X3	Y3	Z3	X4	Y4	Z4	X5	Y5	Z5	X6	Y6	Z6	X7	Y7	Z7	X8	Y8	Z8	X9	Y9	Z9	X10	Y10	Z10	X11	Y11	Z11	X12	Y12	Z12	X13	Y13	Z13	X14	Y14	Z14	X15	Y15	Z15	X16	Y16	Z16	X17	Y17	Z17	X18	Y18	Z18	X19	Y19	Z19	X20	Y20	Z20	X21	Y21	Z21	
0	0.0	-0.27231786446440853	1.8973548835948086	-0.592528720432857	-0.28778338217415556	1.8905354530277056	-0.5275895235377893																-0.2395320144482415	1.9005684506519367	-0.6791579622317001	-0.24724319269651418	1.7593612450583473	-0.6791783677557636													-0.25971227179430467	2.054473489150297	-0.6326308533102846	-0.23548697867670354	2.1283922146157743	-0.5811806315572186	-0.27495988112852915	2.0485505165799243	-0.5149850873661943	-1.6534877478752865	1.8745674470383737	0.9756323215435606	-0.2930018684498604	1.8880800716150163	-0.47309101735975395	-0.23609559915639433	2.0602668971994804	-0.72457568255213	-0.22474838268180025	1.9917566668460653	-0.7362278837003178	-0.2062979292333149	1.9153609248872943	-0.783544131167283
1	0.03333333333333333	-0.27047163812852076	1.895892815555404	-0.5945454074468416	-0.2857020268452576	1.8893190622867035	-0.52951832670253																-0.2394207072456299	1.8990897922110175	-0.6790686892781812	-0.24716898719238725	1.7560985957455455	-0.6790269908995838													-0.25970000547590305	2.054467048300784	-0.6326849107111315	-0.23647131618328343	2.1273859231760284	-0.584196480186763	-0.2759037075564448	2.0486808623255786	-0.5179447827340302	-1.6524389630740417	1.8744627739358757	0.9736657096674761	-0.2930018684498604	1.8880800716150163	-0.47309101735975395	-0.23608128425377256	2.0602492819333995	-0.724618469408184	-0.22538313540164479	1.989763121686003	-0.7386046114879854	-0.2079328229784319	1.9127242575435028	-0.7809749449151909
2	0.06666666666666667	-0.268625411792633	1.8944307475159994	-0.5965620944608262	-0.2836206715163596	1.8881026715457014	-0.5314471298672706																-0.2393094000430183	1.8976111337700983	-0.6789794163246623	-0.24709478168826032	1.7528359464327437	-0.6788756140434041													-0.25968773915750143	2.0544606074512712	-0.6327389681119785	-0.23745565368986332	2.1263796317362824	-0.5872123288163074	-0.2768475339843604	2.048811208071233	-0.5209044781018661	-1.651390178272797	1.8743581008333778	0.9716990977913917	-0.2930018684498604	1.8880800716150163	-0.47309101735975395	-0.2360669693511508	2.0602316666673186	-0.7246612562642379	-0.22601788812148932	1.9877695765259407	-0.740981339275653	-0.20956771672354893	1.9100875901997114	-0.7784057586630988
3	0.1	-0.2667791854567452	1.8929686794765948	-0.5985787814748108	-0.28153931618746164	1.8868862808046993	-0.5333759330320113																-0.2391980928404067	1.896132475329179	-0.6788901433711434	-0.2470205761841334	1.7495732971199418	-0.6787242371872244													-0.2596754728390998	2.0544541666017584	-0.6327930255128255	-0.2384399911964432	2.1253733402965365	-0.5902281774458518	-0.27779136041227603	2.048941553816887	-0.523864173469702	-1.6503413934715523	1.8742534277308798	0.9697324859153073	-0.2930018684498604	1.8880800716150163	-0.47309101735975395	-0.23605265444852902	2.0602140514012377	-0.7247040431202919	-0.22665264084133385	1.9857760313658783	-0.7433580670633206	-0.21120261046866595	1.90745092285592	-0.7758365724110067
4	0.13333333333333333	-0.26493295912085746	1.8915066114371901	-0.6005954684887954	-0.27945796085856367	1.8856698900636972	-0.5353047361967519																-0.2390867856377951	1.8946538168882598	-0.6788008704176245	-0.24694637068000647	1.74631064780714	-0.6785728603310447													-0.2596632065206982	2.0544477257522455	-0.6328470829136724	-0.2394243287030231	2.1243670488567905	-0.5932440260753962	-0.27873518684019166	2.0490718995625414	-0.526823868837538	-1.6492926086703077	1.8741487546283817	0.9677658740392229	-0.2930018684498604	1.8880800716150163	-0.47309101735975395	-0.23603833954590725	2.060196436135157	-0.7247468299763459	-0.22728739356117839	1.983782486205816	-0.7457347948509883	-0.21283750421378297	1.9048142555121286	-0.7732673861589145
5	0.16666666666666666	-0.2630867327849697	1.8900445433977855	-0.60261215550278	-0.2773766055296657	1.8844534993226951	-0.5372335393614925																-0.2389754784351835	1.8931751584473406	-0.6787115974641056	-0.24687216517587954	1.7430479984943381	-0.678421483474865													-0.25965094020229657	2.0544412849027327	-0.6329011403145194	-0.240408666209603	2.1233607574170446	-0.5962598747049406	-0.2796790132681073	2.0492022453081957	-0.5297835642053739	-1.6482438238690629	1.8740440815258836	0.9657992621631384	-0.2930018684498604	1.8880800716150163	-0.47309101735975395	-0.23602402464328548	2.060178820869076	-0.7247896168323998	-0.22792214628102292	1.9817889410457536	-0.7481115226386559	-0.2144723979589	1.9021775881683372	-0.7706981999068224
6	0.2	-0.2612405064490819	1.8885824753583809	-0.6046288425167646	-0.2752952502007677	1.883237108581693	-0.5391623425262332																-0.2388641712325719	1.8916965000064214	-0.6786223245105867	-0.2467979596717526	1.7397853491815363	-0.6782701066186853													-0.25963867388389494	2.05443484405322	-0.6329551977153663	-0.24139300371618289	2.1223544659772986	-0.599275723334485	-0.2806228396960229	2.04933259105385	-0.5327432595732098	-1.6471950390678183	1.8739394084233856	0.963832650287054	-0.2930018684498604	1.8880800716150163	-0.47309101735975395	-0.2360097097406637	2.060161205602995	-0.7248324036884538	-0.22855689900086745	1.9797953958856913	-0.7504882504263235	-0.21610729170401702	1.8995409208245457	-0.7681290136547303
7	0.23333333333333334	-0.25939428011319415	1.8871204073189762	-0.6066455295307492	-0.27321389487186976	1.882020717840691	-0.5410911456909738																-0.2387528640299603	1.8902178415655022	-0.6785330515570678	-0.24672375416762568	1.7365226998687344	-0.6781187297625055													-0.2596264075654933	2.054428403203707	-0.6330092551162133	-0.24237734122276278	2.1213481745375526	-0.6022915719640294	-0.28156666612393855	2.0494629367995043	-0.5357029549410457	-1.6461462542665735	1.8738347353208875	0.9618660384109695	-0.2930018684498604	1.8880800716150163	-0.47309101735975395	-0.23599539483804194	2.060143590336914	-0.7248751905445078	-0.229191651720712	1.977801850725629	-0.7528649782139911	-0.21774218544913404	1.8969042534807543	-0.7655598274026382
8	0.26666666666666666	-0.2575480537773064	1.8856583392795716	-0.6086622165447338	-0.2711325395429718	1.8808043270996888	-0.5430199488557145																-0.2386415568273487	1.888739183124583	-0.6784437786035489	-0.24664954866349875	1.7332600505559326	-0.6779673529063258													-0.2596141412470917	2.054421962354194	-0.6330633125170603	-0.24336167872934267	2.1203418830978067	-0.6053074205935738	-0.2825104925518542	2.0495932825451586	-0.5386626503088816	-1.6450974694653289	1.8737300622183894	0.9598994265348851	-0.2930018684498604	1.8880800716150163	-0.47309101735975395	-0.23598107993542017	2.060125975070833	-0.7249179774005617	-0.22982640444055652	1.9758083055655666	-0.7552417060016587	-0.21937707919425106	1.8942675861369629	-0.762990641150546
9	0.3	-0.2557018274414186	1.884196271240167	-0.6106789035587185	-0.2690511842140738	1.8795879363586867	-0.5449487520204551																-0.2385302496247371	1.8872605246836638	-0.67835450565003	-0.24657534315937182	1.7299974012431307	-0.6778159760501461													-0.2596018749286901	2.0544155215046813	-0.6331173699179072	-0.24434601623592256	2.1193355916580607	-0.6083232692231182	-0.2834543189797698	2.049723628290813	-0.5416223456767175	-1.6440486846640843	1.8736253891158914	0.9579328146588008	-0.2930018684498604	1.8880800716150163	-0.47309101735975395	-0.2359667650327984	2.0601083598047523	-0.7249607642566157	-0.23046115716040105	1.9738147604055043	-0.7576184337893264	-0.22101197293936808	1.8916309187931715	-0.7604214548984539
10	0.3333333333333333	-0.255718733456767	1.884416837740207	-0.610643926919898	-0.2712191329552982	1.8784168555358103	-0.5426677379136458																-0.23866893095587502	1.8864451399354751	-0.6782413539261746	-0.2467709498774021	1.7309159994662902	-0.6776682455604977													-0.2596704277969016	2.054286609908342	-0.6330760099983458	-0.24337074725891805	2.120367006351379	-0.6053163562743402	-0.2835345678854639	2.0509409705989237	-0.5420524321144456	-1.6429998998628395	1.8735207160133933	0.9559662027827163	-0.2930018684498604	1.8880800716150163	-0.47309101735975395	-0.23612396743386393	2.0589084295829396	-0.7250562146377624	-0.22970491103521734	1.9752659294309685	-0.7550330737986393	-0.22144241375087909	1.8923611593385992	-0.760698179671989
11	0.36666666666666664	-0.2575577991643348	1.885232206064293	-0.6086727334357448	-0.2710759639592879	1.8790306860655106	-0.5428068757861219																-0.23853054635726756	1.8871345821156413	-0.6783025580064077	-0.24676871369187886	1.730597136628469	-0.6777300155801543													-0.2596388685788595	2.054378282386214	-0.6330515384544304	-0.245326955228823	2.120211346741349	-0.6032704889956799	-0.28252524981865346	2.0495906820293857	-0.5386095920319289	-1.6419511150615949	1.8734160429108953	0.9539995909066319	-0.2930018684498604	1.8880800716150163	-0.47309101735975395	-0.23610489556186734	2.0589209360793004	-0.7250896123923771	-0.22977520840011992	1.9724148708184273	-0.7547705957953047	-0.22135665279848984	1.8920132361745432	-0.7604526067124147
12	0.4	-0.25761923109301255	1.8829202983065692	-0.608329776633546	-0.2709741928768788	1.8780768197782662	-0.5425835925094568																-0.23844665770590354	1.8862578393868963	-0.6781534456472929	-0.24676647750635558	1.7302782737906475	-0.677791785599811													-0.25966336095922216	2.054372118166061	-0.6330974200514504	-0.24336085444534344	2.1202905177997873	-0.605334227335924	-0.28355571189663004	2.0509766542329597	-0.5421525701033155	-1.64090233026035	1.8733113698083972	0.9520329790305474	-0.2930018684498604	1.8880800716150163	-0.47309101735975395	-0.23607861595426985	2.0589458912492695	-0.7250485539638838	-0.23072463697434228	1.9733690077234034	-0.757874187130541	-0.22081021826393032	1.8919278465167517	-0.7578709215343218
13	0.43333333333333335	-0.25786993613306813	1.8858368201857216	-0.6086543484301583	-0.27027485194552126	1.8808832695149893	-0.5398753678048205																-0.23888180430287892	1.8873952007259274	-0.6783024844628673	-0.2480971639566886	1.7314847435726102	-0.6723421413497975													-0.25964535019129736	2.0543122474969775	-0.6330529222005912	-0.2442634792168072	2.120444308909961	-0.6081439925422348	-0.28252972970987456	2.0496226342536046	-0.5385897409358748	-1.6398535454591054	1.8732066967058991	0.950066367154463	-0.2930018684498604	1.8880800716150163	-0.47309101735975395	-0.23607859975176232	2.059015285145689	-0.725077249177304	-0.2299380551263614	1.9748514017139318	-0.755303362594063	-0.2214115733621539	1.8946778568621676	-0.7608746357758133
14	0.4666666666666667	-0.25551532661157417	1.8855627647525817	-0.6108038457467337	-0.2689982634297227	1.8820256972332714	-0.5452903217062813																-0.23857811571642468	1.8886471591787073	-0.6785008279696201	-0.24568908769072176	1.7293240019271716	-0.6745513763538254													-0.2596309584031248	2.054442332754874	-0.6330508051705597	-0.2442603089141977	2.120459167984391	-0.608190424814824	-0.28355441214846616	2.050945226984977	-0.5420716431444081	-1.6388047606578606	1.873102023603401	0.9480997552783785	-0.2930018684498604	1.8880800716150163	-0.47309101735975395	-0.23595418164208232	2.0601886508733775	-0.724901589787348	-0.22994818780451978	1.9749152178001734	-0.7552626456536939	-0.2215221911061302	1.8968047582908834	-0.7610601962764385
